<svg width="1513" height="1328" viewBox="0 0 1513 1328" fill="none" xmlns="http://www.w3.org/2000/svg">
<g filter="url(#filter0_f_60_19)">
<path fill-rule="evenodd" clip-rule="evenodd" d="M285.053 359.44C370.599 382.334 378.18 498.231 432.472 568.192C474.086 621.816 558.412 647.803 561.455 715.612C564.533 784.206 497.207 830.778 446.324 876.883C399.002 919.761 348.213 956.641 285.053 966.057C209.576 977.31 121.84 986.738 67.2673 933.397C12.4635 879.831 34.8591 792.008 28.8218 715.612C21.856 627.467 -21.7439 532.227 29.8919 460.451C85.4261 383.256 193.191 334.855 285.053 359.44Z" fill="url(#paint0_linear_60_19)"/>
</g>
<g filter="url(#filter1_f_60_19)">
<path fill-rule="evenodd" clip-rule="evenodd" d="M1232.26 6.30242C1308.75 19.2092 1311.94 129.66 1362.66 188.399C1405.93 238.508 1486.65 254.525 1502.17 318.902C1520.12 393.312 1495.31 474.236 1445.62 532.426C1392.33 594.823 1314.26 636.347 1232.26 634.967C1151.33 633.604 1081.88 583.909 1025.95 525.361C971.503 468.362 925.68 397.619 930.325 318.902C934.785 243.318 996.378 189.909 1048.96 135.469C1102.95 79.5718 1155.65 -6.62257 1232.26 6.30242Z" fill="url(#paint1_linear_60_19)"/>
</g>
<g filter="url(#filter2_f_60_19)">
<path fill-rule="evenodd" clip-rule="evenodd" d="M1105.14 820.001C1166.56 820.33 1194.6 893.579 1242.54 931.981C1302.48 979.998 1404.22 993.561 1416.44 1069.38C1428.87 1146.52 1360.85 1217 1295.34 1259.59C1239.97 1295.59 1170.76 1264.32 1105.14 1271.78C1021.9 1281.24 937.742 1351.88 866.165 1308.35C790.151 1262.13 749.532 1155.38 772.312 1069.38C793.477 989.48 900.103 980.067 966.253 930.501C1015.47 893.623 1043.64 819.672 1105.14 820.001Z" fill="url(#paint2_linear_60_19)"/>
</g>
<defs>
<filter id="filter0_f_60_19" x="0" y="348" width="566.557" height="631.784" filterUnits="userSpaceOnUse" color-interpolation-filters="sRGB">
<feFlood flood-opacity="0" result="BackgroundImageFix"/>
<feBlend mode="normal" in="SourceGraphic" in2="BackgroundImageFix" result="shape"/>
<feGaussianBlur stdDeviation="2.5" result="effect1_foregroundBlur_60_19"/>
</filter>
<filter id="filter1_f_60_19" x="925" y="0" width="588" height="640" filterUnits="userSpaceOnUse" color-interpolation-filters="sRGB">
<feFlood flood-opacity="0" result="BackgroundImageFix"/>
<feBlend mode="normal" in="SourceGraphic" in2="BackgroundImageFix" result="shape"/>
<feGaussianBlur stdDeviation="2.5" result="effect1_foregroundBlur_60_19"/>
</filter>
<filter id="filter2_f_60_19" x="761" y="815" width="661.923" height="512.403" filterUnits="userSpaceOnUse" color-interpolation-filters="sRGB">
<feFlood flood-opacity="0" result="BackgroundImageFix"/>
<feBlend mode="normal" in="SourceGraphic" in2="BackgroundImageFix" result="shape"/>
<feGaussianBlur stdDeviation="2.5" result="effect1_foregroundBlur_60_19"/>
</filter>
<linearGradient id="paint0_linear_60_19" x1="34.5" y1="379" x2="375.5" y2="904.5" gradientUnits="userSpaceOnUse">
<stop stop-color="#83C246"/>
<stop offset="1" stop-color="#78D3B8"/>
</linearGradient>
<linearGradient id="paint1_linear_60_19" x1="1219" y1="5" x2="1219" y2="635" gradientUnits="userSpaceOnUse">
<stop stop-color="#78D3B8"/>
<stop offset="1" stop-color="#83C246"/>
</linearGradient>
<linearGradient id="paint2_linear_60_19" x1="1091.96" y1="820" x2="1091.96" y2="1322.4" gradientUnits="userSpaceOnUse">
<stop stop-color="#78D3B8"/>
<stop offset="1" stop-color="#83C246"/>
</linearGradient>
</defs>
</svg>
